<?xml version="1.0" standalone="no"?>
<!DOCTYPE svg PUBLIC "-//W3C//DTD SVG 20010904//EN"
 "http://www.w3.org/TR/2001/REC-SVG-20010904/DTD/svg10.dtd">
<svg version="1.0" xmlns="http://www.w3.org/2000/svg"
 width="260.000000pt" height="260.000000pt" viewBox="0 0 260.000000 260.000000"
 preserveAspectRatio="xMidYMid meet">
<metadata>
Created by potrace 1.11, written by Peter Selinger 2001-2013
</metadata>
<g transform="translate(0.000000,260.000000) scale(0.100000,-0.100000)"
fill="#000000" stroke="none">
<path d="M944 2197 c-1 -61 -7 -132 -14 -157 -7 -25 -14 -55 -16 -67 -2 -12
-9 -35 -16 -50 -6 -16 -12 -30 -12 -33 -9 -40 -101 -197 -150 -257 -66 -82
-264 -241 -280 -226 -3 3 -6 2 -6 -4 0 -11 -78 -48 -92 -45 -5 1 -8 -3 -8 -9
0 -6 -6 -9 -14 -6 -8 3 -22 -1 -33 -8 -17 -13 -15 -14 17 -16 45 -2 36 -2 103
5 62 6 98 13 137 26 14 4 34 11 45 15 11 3 22 6 25 7 3 0 17 9 33 20 15 11 27
16 27 11 0 -4 4 -3 8 2 4 6 26 23 49 38 110 75 198 191 246 323 32 88 40 140
39 239 -1 103 -54 305 -80 305 -4 0 -8 -51 -8 -113z"/>
<path d="M1985 2291 c7 -22 8 -252 1 -306 -2 -16 -7 -57 -11 -90 -8 -67 -9
-70 -25 -140 -6 -27 -13 -57 -15 -66 -18 -85 -111 -335 -136 -366 -7 -7 -8
-13 -3 -13 5 0 4 -4 -2 -8 -5 -4 -18 -23 -27 -42 -10 -19 -27 -48 -37 -65 -11
-16 -23 -37 -27 -45 -25 -57 -212 -282 -297 -359 -22 -20 -56 -51 -75 -68 -20
-18 -39 -33 -43 -33 -4 0 -15 -8 -25 -19 -66 -69 -413 -257 -511 -277 -18 -4
-35 -11 -38 -15 -3 -5 -10 -6 -16 -3 -6 4 -9 1 -6 -7 4 -11 32 -14 139 -13 74
1 143 4 154 7 11 3 43 8 70 11 28 4 68 12 90 18 56 16 58 16 80 21 36 9 170
65 221 92 172 94 271 176 423 350 48 54 146 222 182 310 32 79 42 108 60 179
23 89 25 102 35 196 12 113 9 223 -10 356 -17 120 -113 389 -146 409 -9 5 -10
1 -5 -14z"/>
<path d="M1454 2137 c-5 -441 -217 -838 -582 -1087 -83 -57 -185 -110 -270
-141 -31 -12 -61 -25 -66 -30 -8 -7 32 -12 94 -11 109 1 327 46 354 73 6 5 16
9 24 9 20 0 150 77 207 123 155 126 274 303 320 477 0 3 4 14 8 25 4 11 9 36
12 55 3 19 7 49 10 65 5 32 6 215 1 252 -1 13 -5 26 -9 29 -4 4 -7 17 -7 30 0
36 -77 254 -90 254 -3 0 -6 -55 -6 -123z"/>
</g>
</svg>
